<svg width="20" height="21" viewBox="0 0 20 21" fill="none" xmlns="http://www.w3.org/2000/svg">
<g clip-path="url(#clip0_4692_177)">
<path d="M10.5799 13.983C10.3915 13.9967 10.2013 14.0035 10.0094 14.0035C9.77588 14.0035 9.54507 13.993 9.31695 13.9733C8.18841 13.8753 7.09482 13.5394 6.11108 12.9886C5.12734 12.4378 4.27669 11.6852 3.61739 10.7822C3.60003 10.7579 3.57665 10.7384 3.54947 10.7254C3.52228 10.7124 3.49216 10.7064 3.46195 10.7079C3.43174 10.7094 3.40242 10.7185 3.37675 10.7341C3.35107 10.7498 3.32988 10.7716 3.31516 10.7975L0.100876 16.4588C-0.0214459 16.6775 -0.0406423 16.94 0.0883756 17.1535C0.155537 17.2594 0.249098 17.3467 0.36024 17.4074C0.471383 17.468 0.596446 17.4999 0.723643 17.5H4.20579C4.32708 17.4956 4.44738 17.523 4.55427 17.5794C4.66115 17.6358 4.75075 17.7191 4.81382 17.8207L6.53971 20.65C6.60287 20.755 6.69249 20.8423 6.79998 20.9036C6.90746 20.9649 7.02921 20.9981 7.15355 21C7.41873 20.9856 7.69329 20.8167 7.80355 20.58L10.7549 14.2297C10.7676 14.2021 10.7729 14.1718 10.77 14.1416C10.7672 14.1115 10.7565 14.0825 10.7388 14.0577C10.7212 14.0328 10.6973 14.0129 10.6694 13.9998C10.6416 13.9867 10.6107 13.9809 10.5799 13.983ZM19.8942 16.4448L16.7009 10.7936C16.6861 10.7679 16.665 10.7464 16.6395 10.7308C16.614 10.7153 16.5848 10.7063 16.5548 10.7048C16.5248 10.7032 16.4949 10.7091 16.4679 10.7219C16.4408 10.7346 16.4174 10.7539 16.4 10.7778C15.5218 11.9837 14.3082 12.9164 12.904 13.465C12.7316 13.5316 12.5921 13.6609 12.5147 13.8259L10.8692 17.374C10.848 17.4193 10.837 17.4686 10.837 17.5184C10.837 17.5682 10.848 17.6175 10.8692 17.6628L12.2205 20.5761C12.3299 20.8128 12.604 20.9856 12.8687 21C12.9932 20.997 13.1147 20.9628 13.2218 20.9006C13.3289 20.8384 13.4179 20.7503 13.4803 20.6448L15.2004 17.8194C15.3294 17.6072 15.5634 17.4987 15.8156 17.5H19.3321C19.6299 17.5 19.8553 17.3478 19.9571 17.0625C19.9929 16.9612 20.0058 16.8535 19.9949 16.7469C19.9841 16.6402 19.9497 16.5371 19.8942 16.4448Z" fill="#A7A7A7"/>
<path d="M10.0115 8.40003C11.1952 8.40003 12.1548 7.45983 12.1548 6.30003C12.1548 5.14023 11.1952 4.20003 10.0115 4.20003C8.82775 4.20003 7.86816 5.14023 7.86816 6.30003C7.86816 7.45983 8.82775 8.40003 10.0115 8.40003Z" fill="#A7A7A7"/>
<path d="M10.0116 0C6.46604 0 3.58301 2.82581 3.58301 6.3C3.58301 9.77419 6.46738 12.6 10.0116 12.6C13.5558 12.6 16.4402 9.77375 16.4402 6.3C16.4402 2.82625 13.5567 0 10.0116 0ZM10.0116 9.8C9.30522 9.8 8.61472 9.59473 8.0274 9.21014C7.44008 8.82556 6.98232 8.27893 6.71201 7.63939C6.4417 6.99985 6.37097 6.29612 6.50877 5.61718C6.64658 4.93825 6.98672 4.31461 7.4862 3.82513C7.98567 3.33564 8.62204 3.0023 9.31483 2.86725C10.0076 2.7322 10.7257 2.80151 11.3783 3.06642C12.0309 3.33133 12.5887 3.77993 12.9811 4.3555C13.3735 4.93108 13.583 5.60777 13.583 6.3C13.5818 7.2279 13.2052 8.11747 12.5357 8.77359C11.8661 9.42972 10.9584 9.79884 10.0116 9.8Z" fill="#A7A7A7"/>
</g>
<defs>
<clipPath id="clip0_4692_177">
<rect width="20" height="21" fill="white"/>
</clipPath>
</defs>
</svg>
