<svg width="20" height="20" viewBox="0 0 20 20" fill="none" xmlns="http://www.w3.org/2000/svg">
<g clip-path="url(#clip0_4692_171)">
<path d="M9.99955 11.1538C10.6368 11.1538 11.1534 10.6372 11.1534 9.99998C11.1534 9.36272 10.6368 8.84613 9.99955 8.84613C9.3623 8.84613 8.8457 9.36272 8.8457 9.99998C8.8457 10.6372 9.3623 11.1538 9.99955 11.1538Z" fill="#A7A7A7"/>
<path d="M10 0C4.48606 0 0 4.48606 0 10C0 15.5139 4.48606 20 10 20C15.5139 20 20 15.5139 20 10C20 4.48606 15.5139 0 10 0ZM15.0514 5.44856L12.7976 11.0832C12.6428 11.4702 12.4111 11.8217 12.1164 12.1164C11.8217 12.4111 11.4702 12.6428 11.0832 12.7976L5.44856 15.0514C5.37866 15.0794 5.30209 15.0863 5.22834 15.0711C5.15459 15.056 5.0869 15.0196 5.03367 14.9663C4.98043 14.9131 4.94399 14.8454 4.92886 14.7717C4.91373 14.6979 4.92058 14.6213 4.94856 14.5514L7.2024 8.91683C7.35716 8.52985 7.58892 8.17834 7.88363 7.88363C8.17834 7.58892 8.52985 7.35716 8.91683 7.2024L14.5514 4.94856C14.6213 4.92058 14.6979 4.91373 14.7717 4.92886C14.8454 4.94399 14.9131 4.98043 14.9663 5.03367C15.0196 5.0869 15.056 5.15459 15.0711 5.22834C15.0863 5.30209 15.0794 5.37866 15.0514 5.44856Z" fill="#A7A7A7"/>
</g>
<defs>
<clipPath id="clip0_4692_171">
<rect width="20" height="20" fill="white"/>
</clipPath>
</defs>
</svg>
