<svg width="17" height="20" viewBox="0 0 17 20" fill="none" xmlns="http://www.w3.org/2000/svg">
<path fill-rule="evenodd" clip-rule="evenodd" d="M14.8349 6.94264C14.8349 8.17731 15.1484 8.90504 15.8383 9.74366C16.3611 10.3615 16.5282 11.1546 16.5282 12.015C16.5282 12.8744 16.2569 13.6902 15.7135 14.3526C15.002 15.1467 13.9986 15.6536 12.9745 15.7417C11.4905 15.8734 10.0056 15.9843 8.5009 15.9843C6.99531 15.9843 5.51131 15.918 4.02731 15.7417C3.00231 15.6536 1.9989 15.1467 1.28834 14.3526C0.744864 13.6902 0.472656 12.8744 0.472656 12.015C0.472656 11.1546 0.640674 10.3615 1.16256 9.74366C1.87406 8.90504 2.16691 8.17731 2.16691 6.94264V6.52383C2.16691 4.87034 2.56302 3.78914 3.37871 2.73072C4.59144 1.18714 6.53538 0.261383 8.45866 0.261383H8.54314C10.5077 0.261383 12.5146 1.23169 13.7066 2.84161C14.4801 3.87825 14.8349 4.91391 14.8349 6.52383V6.94264ZM5.73668 18.0164C5.73668 17.5214 6.17315 17.2946 6.57677 17.1976C7.04891 17.0936 9.92586 17.0936 10.398 17.1976C10.8016 17.2946 11.2381 17.5214 11.2381 18.0164C11.2146 18.4877 10.949 18.9055 10.582 19.1709C10.1061 19.557 9.54759 19.8016 8.96375 19.8897C8.64086 19.9333 8.32359 19.9343 8.01196 19.8897C7.42719 19.8016 6.86869 19.557 6.39373 19.1699C6.02579 18.9055 5.76015 18.4877 5.73668 18.0164Z" fill="#FAFAFA"/>
</svg>
