<svg width="21" height="20" viewBox="0 0 21 20" fill="none" xmlns="http://www.w3.org/2000/svg">
<path fill-rule="evenodd" clip-rule="evenodd" d="M15.7662 0.768617L15.7673 1.51824C18.828 1.73413 20.8499 3.61119 20.8531 6.48975L20.8652 14.9155C20.8696 18.054 18.6788 19.985 15.1672 19.99L6.58955 20C3.09989 20.004 0.881697 18.027 0.877309 14.8795L0.865242 6.55272C0.860854 3.65517 2.81137 1.78311 5.87209 1.53024L5.87099 0.780611C5.8699 0.340832 6.23192 0.00999726 6.71461 0.00999726C7.1973 0.00899776 7.55932 0.338833 7.56042 0.778612L7.56152 1.47826L14.0779 1.47027L14.0768 0.770616C14.0757 0.330837 14.4377 0.00100177 14.9204 2.26549e-06C15.3921 -0.000997234 15.7651 0.328838 15.7662 0.768617ZM2.55578 6.86155L19.1648 6.84156V6.49173C19.1177 4.34281 17.9197 3.21537 15.7695 3.04746L15.7706 3.81707C15.7706 4.24686 15.3987 4.58769 14.927 4.58769C14.4443 4.58869 14.0812 4.24886 14.0812 3.81907L14.0801 3.00948L7.56373 3.01747L7.56483 3.82607C7.56483 4.25685 7.20391 4.59668 6.72121 4.59668C6.23852 4.59768 5.8754 4.25885 5.8754 3.82807L5.8743 3.05845C3.73509 3.25136 2.5514 4.38279 2.55469 6.5507L2.55578 6.86155ZM14.4648 11.4043V11.4153C14.4758 11.875 14.8927 12.2239 15.3984 12.2139C15.8921 12.2029 16.2859 11.8221 16.2749 11.3623C16.2519 10.9225 15.8559 10.5637 15.3633 10.5647C14.8587 10.5747 14.4637 10.9445 14.4648 11.4043ZM15.3714 15.892C14.8668 15.882 14.4598 15.5032 14.4587 15.0434C14.4477 14.5837 14.8525 14.2029 15.3572 14.1919H15.3681C15.8838 14.1919 16.3017 14.5707 16.3017 15.0404C16.3028 15.5102 15.8859 15.891 15.3714 15.892ZM9.94555 11.4204C9.96749 11.8802 10.3855 12.239 10.8901 12.219C11.3838 12.198 11.7776 11.8182 11.7557 11.3584C11.7436 10.9086 11.3377 10.5588 10.844 10.5598C10.3394 10.5798 9.94446 10.9606 9.94555 11.4204ZM10.8945 15.8472C10.3899 15.8672 9.97298 15.5084 9.94994 15.0486C9.94994 14.5888 10.3438 14.209 10.8484 14.188C11.3421 14.187 11.7491 14.5368 11.76 14.9856C11.7831 15.4464 11.3882 15.8262 10.8945 15.8472ZM5.42578 11.4553C5.44772 11.9151 5.86569 12.2749 6.37032 12.2539C6.86398 12.2339 7.25782 11.8531 7.23478 11.3933C7.22381 10.9435 6.81791 10.5937 6.32315 10.5947C5.81851 10.6147 5.42468 10.9955 5.42578 11.4553ZM6.37471 15.852C5.87008 15.873 5.45321 15.5132 5.43017 15.0534C5.42907 14.5936 5.82401 14.2128 6.32864 14.1928C6.8223 14.1918 7.2293 14.5417 7.24027 14.9914C7.26331 15.4512 6.86948 15.832 6.37471 15.852Z" fill="#A7A7A7"/>
</svg>
