<svg width="20" height="20" viewBox="0 0 20 20" fill="none" xmlns="http://www.w3.org/2000/svg">
<path fill-rule="evenodd" clip-rule="evenodd" d="M5.34444 0.263603H14.6567C18.0889 0.263603 20 2.01347 20 5.01183V15.1669C20 18.2144 18.0889 19.925 14.6567 19.925H5.34444C1.96667 19.925 0 18.2144 0 15.1669V5.01183C0 2.01347 1.96667 0.263603 5.34444 0.263603ZM5.64444 4.8447V4.83487H8.96556C9.44444 4.83487 9.83333 5.17895 9.83333 5.60068C9.83333 6.03422 9.44444 6.37829 8.96556 6.37829H5.64444C5.16556 6.37829 4.77778 6.03422 4.77778 5.6115C4.77778 5.18878 5.16556 4.8447 5.64444 4.8447ZM5.64444 10.8218H14.3556C14.8333 10.8218 15.2222 10.4777 15.2222 10.055C15.2222 9.63225 14.8333 9.28719 14.3556 9.28719H5.64444C5.16556 9.28719 4.77778 9.63225 4.77778 10.055C4.77778 10.4777 5.16556 10.8218 5.64444 10.8218ZM5.64444 15.3144H14.3556C14.7989 15.2751 15.1333 14.9398 15.1333 14.5476C15.1333 14.1445 14.7989 13.8103 14.3556 13.771H5.64444C5.31111 13.7415 4.98889 13.8791 4.81111 14.1347C4.63333 14.3805 4.63333 14.7049 4.81111 14.9605C4.98889 15.2063 5.31111 15.3537 5.64444 15.3144Z" fill="#FFFFFF"/>
</svg>
