<svg width="20" height="17" viewBox="0 0 20 17" fill="none" xmlns="http://www.w3.org/2000/svg">
<path d="M5.38462 8.5C5.38462 8.29506 5.46566 8.09851 5.60992 7.9536C5.75418 7.80868 5.94983 7.72727 6.15385 7.72727H13.0769V2.70455C13.0769 1.15909 11.4524 0 10 0H2.69231C1.9785 0.000767041 1.29414 0.285956 0.789402 0.79299C0.284662 1.30002 0.00076357 1.98749 0 2.70455V14.2955C0.00076357 15.0125 0.284662 15.7 0.789402 16.207C1.29414 16.714 1.9785 16.9992 2.69231 17H10.3846C11.0984 16.9992 11.7828 16.714 12.2875 16.207C12.7923 15.7 13.0762 15.0125 13.0769 14.2955V9.27273H6.15385C5.94983 9.27273 5.75418 9.19132 5.60992 9.0464C5.46566 8.90149 5.38462 8.70494 5.38462 8.5ZM19.7745 7.95378L15.9284 4.09014C15.7829 3.95134 15.5893 3.87511 15.3887 3.87769C15.1881 3.88027 14.9965 3.96146 14.8546 4.10395C14.7128 4.24644 14.6319 4.43896 14.6294 4.64046C14.6268 4.84196 14.7027 5.03649 14.8409 5.18258L17.3736 7.72727H13.0769V9.27273H17.3736L14.8409 11.8174C14.7664 11.8885 14.7069 11.9737 14.6658 12.0683C14.6247 12.1628 14.6028 12.2646 14.6015 12.3677C14.6002 12.4709 14.6195 12.5732 14.6581 12.6688C14.6968 12.7643 14.7542 12.8511 14.8268 12.924C14.8994 12.997 14.9858 13.0546 15.0809 13.0934C15.176 13.1323 15.2779 13.1516 15.3805 13.1503C15.4832 13.149 15.5846 13.127 15.6787 13.0857C15.7727 13.0444 15.8576 12.9846 15.9284 12.9099L19.7745 9.04622C19.9187 8.90132 19.9996 8.70485 19.9996 8.5C19.9996 8.29515 19.9187 8.09868 19.7745 7.95378Z" fill="#FFFFFF"/>
</svg>
