<svg width="20" height="20" viewBox="0 0 20 20" fill="none" xmlns="http://www.w3.org/2000/svg">
<path fill-rule="evenodd" clip-rule="evenodd" d="M5.33 0H14.669C18.07 0 19.99 1.929 20 5.33V14.67C20 18.07 18.07 20 14.669 20H5.33C1.929 20 0 18.07 0 14.67V5.33C0 1.929 1.929 0 5.33 0ZM10.0489 15.86C10.4799 15.86 10.8389 15.54 10.8789 15.11V4.92002C10.9189 4.61002 10.7699 4.29902 10.4999 4.13002C10.2189 3.96002 9.87891 3.96002 9.60991 4.13002C9.33891 4.29902 9.18991 4.61002 9.21891 4.92002V15.11C9.26991 15.54 9.62891 15.86 10.0489 15.86ZM14.6499 15.8602C15.0699 15.8602 15.4289 15.5402 15.4799 15.1102V11.8302C15.5089 11.5092 15.3599 11.2102 15.0889 11.0402C14.8199 10.8702 14.4799 10.8702 14.1999 11.0402C13.9289 11.2102 13.7799 11.5092 13.8199 11.8302V15.1102C13.8599 15.5402 14.2189 15.8602 14.6499 15.8602ZM6.21896 15.1101C6.17896 15.5401 5.81996 15.8601 5.38896 15.8601C4.95896 15.8601 4.59896 15.5401 4.55996 15.1101V8.20005C4.52996 7.88905 4.67896 7.58005 4.94996 7.41005C5.21896 7.24005 5.55996 7.24005 5.82996 7.41005C6.09896 7.58005 6.24996 7.88905 6.21896 8.20005V15.1101Z" fill="#FFFFFF"/>
</svg>
