<svg width="24" height="17" viewBox="0 0 24 17" fill="none" xmlns="http://www.w3.org/2000/svg">
<path d="M11.25 3.375C8.87297 3.94734 6.83672 5.82703 5.61094 6.81703C5.2573 6.48938 4.88462 6.18291 4.49484 5.89922C2.79047 4.65422 0.75 4.5 0.75 4.5C0.75 4.5 1.28297 6.91547 2.68875 8.24203C1.28297 9.56906 0.75 11.9845 0.75 11.9845C0.75 11.9845 2.79047 11.8303 4.49484 10.5853C4.88133 10.3041 5.25088 10.0003 5.60156 9.67547C6.825 10.6664 8.87063 12.5508 11.25 13.125L10.5 15.75C12.3483 15.4373 14.1966 14.0855 14.94 13.4883C21 13.2188 23.25 9.32812 23.25 8.25C23.25 7.21875 21 3.28125 14.9583 3.01266C14.2275 2.42719 12.3637 1.065 10.5 0.75L11.25 3.375Z" stroke="#090909" stroke-width="1.5" stroke-linejoin="round"/>
</svg>
