<svg width="6" height="24" viewBox="0 0 6 24" fill="none" xmlns="http://www.w3.org/2000/svg">
<g clip-path="url(#clip0_8345_5495)">
<path d="M2.76923 14.7692C4.29863 14.7692 5.53846 13.5293 5.53846 11.9999C5.53846 10.4705 4.29863 9.23071 2.76923 9.23071C1.23983 9.23071 0 10.4705 0 11.9999C0 13.5293 1.23983 14.7692 2.76923 14.7692Z" fill="#363636"/>
<path d="M2.76923 24C4.29863 24 5.53846 22.7602 5.53846 21.2308C5.53846 19.7014 4.29863 18.4615 2.76923 18.4615C1.23983 18.4615 0 19.7014 0 21.2308C0 22.7602 1.23983 24 2.76923 24Z" fill="#363636"/>
<path d="M2.76923 5.53846C4.29863 5.53846 5.53846 4.29863 5.53846 2.76923C5.53846 1.23983 4.29863 0 2.76923 0C1.23983 0 0 1.23983 0 2.76923C0 4.29863 1.23983 5.53846 2.76923 5.53846Z" fill="#363636"/>
</g>
<defs>
<clipPath id="clip0_8345_5495">
<rect width="5.53846" height="24" fill="white"/>
</clipPath>
</defs>
</svg>
