<svg width="24" height="24" viewBox="0 0 24 24" fill="none" xmlns="http://www.w3.org/2000/svg">
<g clip-path="url(#clip0_4278_7461)">
<path d="M8.14314 12C8.85322 12 9.42885 11.4243 9.42885 10.7142C9.42885 10.0042 8.85322 9.42853 8.14314 9.42853C7.43306 9.42853 6.85742 10.0042 6.85742 10.7142C6.85742 11.4243 7.43306 12 8.14314 12Z" fill="#090909"/>
<path d="M12.0028 18.8571C9.56956 18.8571 7.52313 17.2751 6.87546 15.1162C6.85734 15.0519 6.85449 14.9843 6.86712 14.9188C6.87975 14.8532 6.90751 14.7915 6.9482 14.7386C6.98889 14.6857 7.04138 14.643 7.10148 14.614C7.16158 14.5849 7.22764 14.5703 7.29439 14.5713H16.7064C16.7731 14.5703 16.8392 14.5849 16.8993 14.614C16.9594 14.643 17.0118 14.6857 17.0525 14.7386C17.0932 14.7915 17.121 14.8532 17.1336 14.9188C17.1462 14.9843 17.1434 15.0519 17.1253 15.1162C16.483 17.2751 14.436 18.8571 12.0028 18.8571Z" fill="#090909"/>
<path d="M15.857 12C16.5671 12 17.1427 11.4243 17.1427 10.7142C17.1427 10.0042 16.5671 9.42853 15.857 9.42853C15.1469 9.42853 14.5713 10.0042 14.5713 10.7142C14.5713 11.4243 15.1469 12 15.857 12Z" fill="#090909"/>
<path d="M12.0003 23.1428C18.1543 23.1428 23.1431 18.154 23.1431 12C23.1431 5.84594 18.1543 0.857117 12.0003 0.857117C5.84625 0.857117 0.857422 5.84594 0.857422 12C0.857422 18.154 5.84625 23.1428 12.0003 23.1428Z" stroke="#090909" stroke-width="1.71429" stroke-miterlimit="10"/>
</g>
<defs>
<clipPath id="clip0_4278_7461">
<rect width="24" height="24" fill="white"/>
</clipPath>
</defs>
</svg>
