<svg width="24" height="24" viewBox="0 0 24 24" fill="none" xmlns="http://www.w3.org/2000/svg">
<g clip-path="url(#clip0_4278_7377)">
<path d="M21.3746 15.4607C21.321 15.2679 21.4388 15 21.5513 14.8072C21.5857 14.7498 21.6233 14.6943 21.6638 14.6411C22.6261 13.2112 23.1408 11.5271 23.1424 9.80359C23.1585 4.86431 18.9906 0.857162 13.8371 0.857162C9.34241 0.857162 5.59241 3.91609 4.71384 7.97681C4.5824 8.57867 4.51595 9.1929 4.51563 9.80895C4.51562 14.7536 8.52277 18.8679 13.6763 18.8679C14.496 18.8679 15.5996 18.6214 16.2049 18.4554C16.8103 18.2893 17.4103 18.0697 17.5656 18.0107C17.7249 17.9507 17.8936 17.9198 18.0638 17.9197C18.2495 17.919 18.4335 17.9554 18.6049 18.0268L21.6424 19.1036C21.709 19.1318 21.7794 19.1498 21.8513 19.1572C21.965 19.1572 22.074 19.112 22.1544 19.0316C22.2348 18.9513 22.2799 18.8423 22.2799 18.7286C22.2762 18.6796 22.2672 18.6311 22.2531 18.5839L21.3746 15.4607Z" stroke="#090909" stroke-width="1.71429" stroke-miterlimit="10" stroke-linecap="round"/>
<path d="M1.84638 10.7143C1.14376 11.9766 0.803863 13.4085 0.864276 14.8519C0.924689 16.2953 1.38306 17.6939 2.1887 18.893C2.31245 19.08 2.3821 19.2246 2.36067 19.3216C2.33924 19.4186 1.72156 22.6361 1.72156 22.6361C1.70671 22.7114 1.71234 22.7893 1.73788 22.8616C1.76342 22.934 1.80792 22.9982 1.86674 23.0475C1.94523 23.11 2.04282 23.1437 2.14317 23.1429C2.19679 23.143 2.24987 23.1321 2.29906 23.1107L5.31031 21.9321C5.51756 21.8504 5.74876 21.8543 5.95317 21.9429C6.96781 22.3382 8.0896 22.5857 9.21192 22.5857C10.718 22.5873 12.1976 22.1901 13.5003 21.4345" stroke="#090909" stroke-width="1.71429" stroke-miterlimit="10" stroke-linecap="round"/>
</g>
<defs>
<clipPath id="clip0_4278_7377">
<rect width="24" height="24" fill="white"/>
</clipPath>
</defs>
</svg>
