<svg width="24" height="24" viewBox="0 0 24 24" fill="none" xmlns="http://www.w3.org/2000/svg">
<g clip-path="url(#clip0_4278_7368)">
<path d="M23.1431 12C23.1431 5.84627 18.154 0.857162 12.0003 0.857162C5.84653 0.857162 0.857422 5.84627 0.857422 12C0.857422 18.1538 5.84653 23.1429 12.0003 23.1429C18.154 23.1429 23.1431 18.1538 23.1431 12Z" stroke="#090909" stroke-width="1.71429" stroke-miterlimit="10"/>
<path d="M22.1554 7.50748C21.295 7.51284 21.3797 9.10016 20.3077 8.35123C19.9097 8.07373 19.6648 7.67034 19.165 7.54766C18.7284 7.44052 18.2811 7.55195 17.8498 7.62641C17.3597 7.71106 16.7784 7.74909 16.4066 8.12034C16.0472 8.47766 15.857 8.95713 15.4745 9.31659C14.7347 10.013 14.4223 10.7732 14.9013 11.7578C15.362 12.7044 16.3257 13.2182 17.3655 13.1507C18.3872 13.0827 19.4484 12.4902 19.4189 13.9746C19.4082 14.4996 19.518 14.8639 19.6793 15.3519C19.8288 15.8019 19.8186 16.238 19.8529 16.7025C19.9161 17.5703 20.0757 18.5432 20.5064 19.3098L21.31 18.1762C21.4091 18.0359 21.6164 17.8393 21.6657 17.6737C21.753 17.3807 21.5811 16.8771 21.5613 16.5487C21.5414 16.2203 21.5511 15.8877 21.5007 15.5593C21.43 15.0991 21.1579 14.6678 21.1204 14.213C21.0513 13.3661 21.2061 12.69 20.5536 11.9818C19.9236 11.2987 19 11.1348 18.1177 11.2736C17.673 11.3432 15.8832 11.6293 16.6016 10.613C16.7436 10.4132 16.9916 10.2493 17.1513 10.0591C17.29 9.89356 17.4105 9.58927 17.5734 9.46016C17.7363 9.33106 18.4841 9.18266 18.6984 9.24856C18.9127 9.31445 19.1361 9.62356 19.322 9.7607C19.6654 10.0194 20.0662 10.1914 20.4904 10.2621C21.2222 10.3693 22.7522 9.94391 22.7404 9.00534C22.7382 8.55534 22.3204 7.92856 22.1554 7.50748ZM13.6847 15.2303C13.3991 14.0282 11.7657 13.6264 10.885 12.9744C10.3788 12.5994 9.92823 12.0203 9.2634 11.9732C8.95698 11.9512 8.70037 12.0177 8.39662 11.9389C8.11805 11.8671 7.89948 11.7171 7.60269 11.7562C7.04823 11.8291 6.6984 12.4216 6.10269 12.3412C5.53751 12.2652 4.95519 11.6041 4.82662 11.0657C4.66162 10.3736 5.20912 10.1491 5.79573 10.0875C6.04055 10.0618 6.31537 10.0339 6.55055 10.1234C6.86019 10.2386 7.00644 10.5418 7.28448 10.695C7.80573 10.9805 7.91126 10.5241 7.83144 10.0612C7.71198 9.36802 7.57269 9.08516 8.1909 8.60838C8.61948 8.27945 8.98591 8.04159 8.91733 7.4507C8.87662 7.10356 8.68644 6.94659 8.86376 6.60106C8.99823 6.33802 9.36733 6.1007 9.60787 5.94373C10.2288 5.53873 12.2677 5.56873 11.4347 4.43516C11.1898 4.10248 10.7382 3.50784 10.3097 3.42641C9.77394 3.32516 9.53608 3.92302 9.16269 4.18659C8.77698 4.45927 8.0259 4.76891 7.63965 4.34731C7.12001 3.77998 7.98412 3.59356 8.17537 3.19766C8.36662 2.80177 7.73233 2.05338 7.39269 1.86373L5.79573 3.65463C5.74985 3.95455 5.76582 4.26069 5.84266 4.55421C5.91949 4.84773 6.05557 5.12243 6.24251 5.36141C6.56019 5.77016 7.0659 5.90141 7.08894 6.45963C7.11144 6.99534 7.02787 7.26963 6.67751 7.64623C6.5259 7.80695 6.41876 8.03516 6.26448 8.1857C6.07537 8.36945 6.14555 8.3132 5.85037 8.36355C5.29537 8.4573 4.82287 8.60195 4.28662 8.74981C3.39305 8.99677 3.31055 7.53695 2.9034 6.96427L1.56412 8.04588C1.54965 8.2232 1.78376 8.54945 1.84751 8.74231C2.2134 9.84427 2.95162 10.6966 3.4284 11.7509C3.93037 12.8673 5.27823 12.5577 5.8734 13.5359C6.40162 14.4037 5.83751 15.5025 6.23287 16.4111C6.52001 17.0705 7.19715 17.2146 7.6643 17.6968C8.14162 18.1837 8.13144 18.8502 8.2043 19.4839C8.28646 20.2293 8.41981 20.9682 8.6034 21.6953C8.66823 21.9466 8.72769 22.2787 8.89965 22.4861C9.01751 22.6286 9.42198 22.7512 9.25858 22.7984C9.4868 22.8359 9.8934 23.0491 10.0836 22.8927C10.3343 22.6869 10.2673 22.0537 10.3107 21.7677C10.4409 20.9159 10.8673 20.0828 11.4427 19.4453C12.0111 18.8164 12.79 18.3905 13.27 17.6775C13.7377 16.9821 13.8786 16.0441 13.6847 15.2303ZM11.8959 16.6403C11.5745 17.2141 10.8588 17.5982 10.3986 18.0541C10.2738 18.1778 10.008 18.6064 9.85162 18.5137C9.73965 18.4473 9.70162 17.8912 9.66037 17.7637C9.44757 17.1217 9.04131 16.5612 8.49733 16.1593C8.32965 16.0323 7.91394 15.8673 7.81805 15.6932C7.7109 15.5041 7.80733 15.0578 7.81108 14.8521C7.81698 14.5521 7.68037 14.0534 7.7543 13.7807C7.84001 13.4662 7.67501 13.6559 7.95626 13.5937C8.10465 13.5605 8.71751 13.6682 8.90233 13.7068C9.1959 13.7678 9.35769 13.9505 9.58912 14.1353C10.1977 14.6234 10.8679 15.0011 11.5498 15.375C12.078 15.6675 12.2334 16.0377 11.8959 16.6403ZM8.16733 1.87981C8.42126 2.12784 8.66019 2.42141 9.03894 2.44606C9.39733 2.47016 9.73537 2.27623 10.0482 2.51998C10.3954 2.78784 10.6455 3.12695 11.1063 3.21052C11.552 3.29141 12.0239 3.03106 12.1343 2.57516C12.2414 2.1407 12.0105 1.6682 11.9966 1.23213C11.9966 1.17159 12.0293 0.902662 11.9875 0.857127C11.9564 0.822841 11.6972 0.861412 11.6575 0.862484C11.3672 0.871055 11.0775 0.891055 10.7886 0.922484C9.73528 1.03649 8.70373 1.30078 7.72537 1.70731C7.85555 1.79731 8.01894 1.8332 8.16733 1.87981ZM17.3784 4.88945C17.8332 4.88945 18.295 4.68588 18.1482 4.15981C18.025 3.71891 17.815 3.24052 17.3039 3.47838C16.9788 3.62945 16.518 4.01409 16.48 4.39552C16.4366 4.82838 17.0752 4.88945 17.3784 4.88945ZM17.0152 7.19141C17.4797 7.46945 18.1686 7.33873 18.5189 6.94177C18.7927 6.63106 18.9539 6.09159 19.4463 6.09213C19.663 6.09168 19.8712 6.17654 20.0259 6.32838C20.2295 6.53891 20.1893 6.73659 20.2327 7.00016C20.3297 7.59213 20.9645 7.03391 21.13 6.80463C21.2372 6.65516 21.3823 6.43338 21.3336 6.23891C21.2886 6.05731 21.0764 5.86391 20.9822 5.69731C20.7068 5.21516 20.4802 4.65427 20.0677 4.26481C19.6707 3.88981 19.1827 3.9332 18.8061 4.32266C18.4975 4.64409 18.1391 4.89856 17.928 5.28963C17.7791 5.56445 17.6114 5.6957 17.3098 5.76695C17.1438 5.80606 16.9541 5.82052 16.8148 5.93195C16.427 6.23731 16.6477 6.9707 17.0152 7.19141Z" fill="#090909"/>
</g>
<defs>
<clipPath id="clip0_4278_7368">
<rect width="24" height="24" fill="white"/>
</clipPath>
</defs>
</svg>
