<svg width="16" height="24" viewBox="0 0 16 24" fill="none" xmlns="http://www.w3.org/2000/svg">
<g clip-path="url(#clip0_4278_7475)">
<path d="M10.3998 18.4V17.2C10.3998 15.75 11.9768 14.3785 12.9998 13.4C14.4418 12.0215 15.1998 10.1695 15.1998 7.99996C15.1998 3.99996 12.0133 0.799955 7.99983 0.799955C7.05358 0.797315 6.11613 0.981747 5.24139 1.34265C4.36666 1.70354 3.57189 2.23379 2.90278 2.9029C2.23367 3.57201 1.70342 4.36678 1.34252 5.24151C0.981625 6.11625 0.797193 7.0537 0.799833 7.99996C0.799833 10.092 1.59033 12.0695 2.99983 13.4C4.01733 14.3605 5.59983 15.735 5.59983 17.2V18.4M6.39983 23.2H9.59983M5.59983 20.8H10.3998M7.99983 18.4V12" stroke="#090909" stroke-width="1.6" stroke-linecap="round" stroke-linejoin="round"/>
<path d="M9.89961 11.2001C9.89961 11.2001 8.82411 12.0001 7.99961 12.0001C7.17511 12.0001 6.09961 11.2001 6.09961 11.2001" stroke="#090909" stroke-width="1.6" stroke-linecap="round" stroke-linejoin="round"/>
</g>
<defs>
<clipPath id="clip0_4278_7475">
<rect width="16" height="24" fill="white"/>
</clipPath>
</defs>
</svg>
