<svg width="24" height="26" viewBox="0 0 24 26" fill="none" xmlns="http://www.w3.org/2000/svg">
<g clip-path="url(#clip0_4278_7450)">
<path d="M7.71456 21.4286V24.8572M2.57171 0.857178H12.8574C13.3121 0.857178 13.7481 1.03779 14.0696 1.35928C14.3911 1.68077 14.5717 2.11681 14.5717 2.57146V24.6429C14.5717 24.6997 14.5491 24.7542 14.5089 24.7944C14.4688 24.8346 14.4143 24.8572 14.3574 24.8572H0.857422V2.57146C0.857422 2.11681 1.03803 1.68077 1.35952 1.35928C1.68102 1.03779 2.11705 0.857178 2.57171 0.857178ZM15.4289 9.42861H21.4289C21.8835 9.42861 22.3195 9.60922 22.641 9.93071C22.9625 10.2522 23.1431 10.6882 23.1431 11.1429V24.8572H14.5717V10.2857C14.5717 10.0584 14.662 9.8404 14.8228 9.67966C14.9835 9.51891 15.2015 9.42861 15.4289 9.42861Z" stroke="#090909" stroke-width="1.71429" stroke-linecap="round" stroke-linejoin="round"/>
<path d="M3.53959 22.2788C3.36207 22.302 3.18173 22.2691 3.0239 22.1846C2.86606 22.1001 2.73864 21.9683 2.65952 21.8077C2.58041 21.6471 2.55357 21.4657 2.58277 21.2891C2.61197 21.1125 2.69575 20.9494 2.82234 20.8228C2.94894 20.6962 3.11199 20.6124 3.28863 20.5832C3.46526 20.554 3.64661 20.5809 3.80721 20.66C3.96781 20.7391 4.09961 20.8665 4.18411 21.0244C4.2686 21.1822 4.30155 21.3625 4.27834 21.54C4.25384 21.7274 4.16812 21.9014 4.03452 22.035C3.90093 22.1686 3.72693 22.2543 3.53959 22.2788ZM3.53959 17.9931C3.36207 18.0163 3.18173 17.9834 3.0239 17.8989C2.86606 17.8144 2.73864 17.6826 2.65952 17.522C2.58041 17.3614 2.55357 17.18 2.58277 17.0034C2.61197 16.8267 2.69575 16.6637 2.82234 16.5371C2.94894 16.4105 3.11199 16.3267 3.28863 16.2975C3.46526 16.2683 3.64661 16.2952 3.80721 16.3743C3.96781 16.4534 4.09961 16.5808 4.18411 16.7386C4.2686 16.8965 4.30155 17.0768 4.27834 17.2543C4.25384 17.4417 4.16812 17.6157 4.03452 17.7493C3.90093 17.8829 3.72693 17.9686 3.53959 17.9931ZM3.53959 13.7074C3.36207 13.7306 3.18173 13.6976 3.0239 13.6131C2.86606 13.5286 2.73864 13.3968 2.65952 13.2362C2.58041 13.0756 2.55357 12.8943 2.58277 12.7177C2.61197 12.541 2.69575 12.378 2.82234 12.2514C2.94894 12.1248 3.11199 12.041 3.28863 12.0118C3.46526 11.9826 3.64661 12.0094 3.80721 12.0886C3.96781 12.1677 4.09961 12.2951 4.18411 12.4529C4.2686 12.6108 4.30155 12.7911 4.27834 12.9686C4.25384 13.156 4.16812 13.33 4.03452 13.4636C3.90093 13.5972 3.72693 13.6829 3.53959 13.7074ZM3.53959 9.42166C3.36207 9.44487 3.18173 9.41192 3.0239 9.32743C2.86606 9.24293 2.73864 9.11113 2.65952 8.95053C2.58041 8.78993 2.55357 8.60858 2.58277 8.43195C2.61197 8.25531 2.69575 8.09226 2.82234 7.96566C2.94894 7.83907 3.11199 7.75529 3.28863 7.72609C3.46526 7.69689 3.64661 7.72373 3.80721 7.80284C3.96781 7.88196 4.09961 8.00938 4.18411 8.16721C4.2686 8.32505 4.30155 8.50539 4.27834 8.68291C4.25384 8.87025 4.16812 9.04425 4.03452 9.17784C3.90093 9.31144 3.72693 9.39716 3.53959 9.42166ZM3.53959 5.13594C3.36207 5.15916 3.18173 5.12621 3.0239 5.04171C2.86606 4.95722 2.73864 4.82542 2.65952 4.66481C2.58041 4.50421 2.55357 4.32287 2.58277 4.14623C2.61197 3.9696 2.69575 3.80654 2.82234 3.67995C2.94894 3.55335 3.11199 3.46957 3.28863 3.44037C3.46526 3.41117 3.64661 3.43801 3.80721 3.51713C3.96781 3.59624 4.09961 3.72366 4.18411 3.8815C4.2686 4.03934 4.30155 4.21967 4.27834 4.39719C4.25384 4.58453 4.16812 4.75853 4.03452 4.89213C3.90093 5.02573 3.72693 5.11144 3.53959 5.13594ZM7.8253 17.9931C7.64778 18.0163 7.46745 17.9834 7.30961 17.8989C7.15177 17.8144 7.02435 17.6826 6.94524 17.522C6.86612 17.3614 6.83928 17.18 6.86848 17.0034C6.89768 16.8267 6.98146 16.6637 7.10806 16.5371C7.23465 16.4105 7.39771 16.3267 7.57434 16.2975C7.75098 16.2683 7.93232 16.2952 8.09292 16.3743C8.25353 16.4534 8.38533 16.5808 8.46982 16.7386C8.55432 16.8965 8.58727 17.0768 8.56405 17.2543C8.53955 17.4417 8.45384 17.6157 8.32024 17.7493C8.18664 17.8829 8.01264 17.9686 7.8253 17.9931ZM7.8253 13.7074C7.64778 13.7306 7.46745 13.6976 7.30961 13.6131C7.15177 13.5286 7.02435 13.3968 6.94524 13.2362C6.86612 13.0756 6.83928 12.8943 6.86848 12.7177C6.89768 12.541 6.98146 12.378 7.10806 12.2514C7.23465 12.1248 7.39771 12.041 7.57434 12.0118C7.75098 11.9826 7.93232 12.0094 8.09292 12.0886C8.25353 12.1677 8.38533 12.2951 8.46982 12.4529C8.55432 12.6108 8.58727 12.7911 8.56405 12.9686C8.53955 13.156 8.45384 13.33 8.32024 13.4636C8.18664 13.5972 8.01264 13.6829 7.8253 13.7074ZM7.8253 9.42166C7.64778 9.44487 7.46745 9.41192 7.30961 9.32743C7.15177 9.24293 7.02435 9.11113 6.94524 8.95053C6.86612 8.78993 6.83928 8.60858 6.86848 8.43195C6.89768 8.25531 6.98146 8.09226 7.10806 7.96566C7.23465 7.83907 7.39771 7.75529 7.57434 7.72609C7.75098 7.69689 7.93232 7.72373 8.09292 7.80284C8.25353 7.88196 8.38533 8.00938 8.46982 8.16721C8.55432 8.32505 8.58727 8.50539 8.56405 8.68291C8.53955 8.87025 8.45384 9.04425 8.32024 9.17784C8.18664 9.31144 8.01264 9.39716 7.8253 9.42166ZM7.8253 5.13594C7.64778 5.15916 7.46745 5.12621 7.30961 5.04171C7.15177 4.95722 7.02435 4.82542 6.94524 4.66481C6.86612 4.50421 6.83928 4.32287 6.86848 4.14623C6.89768 3.9696 6.98146 3.80654 7.10806 3.67995C7.23465 3.55335 7.39771 3.46957 7.57434 3.44037C7.75098 3.41117 7.93232 3.43801 8.09292 3.51713C8.25353 3.59624 8.38533 3.72366 8.46982 3.8815C8.55432 4.03934 8.58727 4.21967 8.56405 4.39719C8.53955 4.58453 8.45384 4.75853 8.32024 4.89213C8.18664 5.02573 8.01264 5.11144 7.8253 5.13594ZM12.111 22.2788C11.9335 22.302 11.7532 22.2691 11.5953 22.1846C11.4375 22.1001 11.3101 21.9683 11.231 21.8077C11.1518 21.6471 11.125 21.4657 11.1542 21.2891C11.1834 21.1125 11.2672 20.9494 11.3938 20.8228C11.5204 20.6962 11.6834 20.6124 11.8601 20.5832C12.0367 20.554 12.218 20.5809 12.3786 20.66C12.5392 20.7391 12.671 20.8665 12.7555 21.0244C12.84 21.1822 12.873 21.3625 12.8498 21.54C12.8253 21.7274 12.7396 21.9014 12.606 22.035C12.4724 22.1686 12.2984 22.2543 12.111 22.2788ZM12.111 17.9931C11.9335 18.0163 11.7532 17.9834 11.5953 17.8989C11.4375 17.8144 11.3101 17.6826 11.231 17.522C11.1518 17.3614 11.125 17.18 11.1542 17.0034C11.1834 16.8267 11.2672 16.6637 11.3938 16.5371C11.5204 16.4105 11.6834 16.3267 11.8601 16.2975C12.0367 16.2683 12.218 16.2952 12.3786 16.3743C12.5392 16.4534 12.671 16.5808 12.7555 16.7386C12.84 16.8965 12.873 17.0768 12.8498 17.2543C12.8253 17.4417 12.7396 17.6157 12.606 17.7493C12.4724 17.8829 12.2984 17.9686 12.111 17.9931ZM12.111 13.7074C11.9335 13.7306 11.7532 13.6976 11.5953 13.6131C11.4375 13.5286 11.3101 13.3968 11.231 13.2362C11.1518 13.0756 11.125 12.8943 11.1542 12.7177C11.1834 12.541 11.2672 12.378 11.3938 12.2514C11.5204 12.1248 11.6834 12.041 11.8601 12.0118C12.0367 11.9826 12.218 12.0094 12.3786 12.0886C12.5392 12.1677 12.671 12.2951 12.7555 12.4529C12.84 12.6108 12.873 12.7911 12.8498 12.9686C12.8253 13.156 12.7396 13.33 12.606 13.4636C12.4724 13.5972 12.2984 13.6829 12.111 13.7074Z" fill="#090909"/>
<path d="M12.6077 9.17825C12.9414 8.84456 12.94 8.30219 12.6047 7.96683C12.2693 7.63146 11.7269 7.63011 11.3933 7.9638C11.0596 8.29748 11.0609 8.83986 11.3963 9.17522C11.7317 9.51058 12.274 9.51194 12.6077 9.17825Z" fill="#090909"/>
<path d="M12.1119 5.13594C11.9343 5.15916 11.754 5.12621 11.5962 5.04171C11.4383 4.95722 11.3109 4.82542 11.2318 4.66481C11.1527 4.50421 11.1258 4.32287 11.155 4.14623C11.1842 3.9696 11.268 3.80654 11.3946 3.67995C11.5212 3.55335 11.6843 3.46957 11.8609 3.44037C12.0375 3.41117 12.2189 3.43801 12.3795 3.51713C12.5401 3.59624 12.6719 3.72366 12.7564 3.8815C12.8409 4.03934 12.8738 4.21967 12.8506 4.39719C12.8261 4.58453 12.7404 4.75853 12.6068 4.89213C12.4732 5.02573 12.2992 5.11144 12.1119 5.13594ZM19.7147 20.5715C19.5452 20.5715 19.3795 20.6217 19.2385 20.7159C19.0975 20.8101 18.9877 20.944 18.9228 21.1006C18.8579 21.2572 18.841 21.4296 18.874 21.5958C18.9071 21.7621 18.9887 21.9148 19.1086 22.0347C19.2285 22.1546 19.3812 22.2362 19.5475 22.2693C19.7138 22.3024 19.8861 22.2854 20.0427 22.2205C20.1993 22.1556 20.3332 22.0458 20.4274 21.9048C20.5216 21.7639 20.5719 21.5981 20.5719 21.4286C20.5719 21.2013 20.4815 20.9833 20.3208 20.8225C20.1601 20.6618 19.942 20.5715 19.7147 20.5715ZM19.7147 16.2858C19.5452 16.2858 19.3795 16.336 19.2385 16.4302C19.0975 16.5244 18.9877 16.6583 18.9228 16.8149C18.8579 16.9715 18.841 17.1439 18.874 17.3101C18.9071 17.4764 18.9887 17.6291 19.1086 17.749C19.2285 17.8689 19.3812 17.9505 19.5475 17.9836C19.7138 18.0167 19.8861 17.9997 20.0427 17.9348C20.1993 17.8699 20.3332 17.7601 20.4274 17.6191C20.5216 17.4782 20.5719 17.3124 20.5719 17.1429C20.5719 16.9156 20.4815 16.6976 20.3208 16.5368C20.1601 16.3761 19.942 16.2858 19.7147 16.2858ZM19.7147 12C19.5452 12 19.3795 12.0503 19.2385 12.1445C19.0975 12.2387 18.9877 12.3726 18.9228 12.5292C18.8579 12.6858 18.841 12.8581 18.874 13.0244C18.9071 13.1907 18.9887 13.3434 19.1086 13.4633C19.2285 13.5832 19.3812 13.6648 19.5475 13.6979C19.7138 13.7309 19.8861 13.714 20.0427 13.6491C20.1993 13.5842 20.3332 13.4744 20.4274 13.3334C20.5216 13.1924 20.5719 13.0267 20.5719 12.8572C20.5719 12.6299 20.4815 12.4118 20.3208 12.2511C20.1601 12.0904 19.942 12 19.7147 12ZM16.2861 20.5715C16.1166 20.5715 15.9509 20.6217 15.8099 20.7159C15.669 20.8101 15.5591 20.944 15.4942 21.1006C15.4294 21.2572 15.4124 21.4296 15.4455 21.5958C15.4785 21.7621 15.5602 21.9148 15.68 22.0347C15.7999 22.1546 15.9526 22.2362 16.1189 22.2693C16.2852 22.3024 16.4575 22.2854 16.6142 22.2205C16.7708 22.1556 16.9046 22.0458 16.9988 21.9048C17.093 21.7639 17.1433 21.5981 17.1433 21.4286C17.1433 21.2013 17.053 20.9833 16.8922 20.8225C16.7315 20.6618 16.5135 20.5715 16.2861 20.5715ZM16.2861 16.2858C16.1166 16.2858 15.9509 16.336 15.8099 16.4302C15.669 16.5244 15.5591 16.6583 15.4942 16.8149C15.4294 16.9715 15.4124 17.1439 15.4455 17.3101C15.4785 17.4764 15.5602 17.6291 15.68 17.749C15.7999 17.8689 15.9526 17.9505 16.1189 17.9836C16.2852 18.0167 16.4575 17.9997 16.6142 17.9348C16.7708 17.8699 16.9046 17.7601 16.9988 17.6191C17.093 17.4782 17.1433 17.3124 17.1433 17.1429C17.1433 16.9156 17.053 16.6976 16.8922 16.5368C16.7315 16.3761 16.5135 16.2858 16.2861 16.2858ZM16.2861 12C16.1166 12 15.9509 12.0503 15.8099 12.1445C15.669 12.2387 15.5591 12.3726 15.4942 12.5292C15.4294 12.6858 15.4124 12.8581 15.4455 13.0244C15.4785 13.1907 15.5602 13.3434 15.68 13.4633C15.7999 13.5832 15.9526 13.6648 16.1189 13.6979C16.2852 13.7309 16.4575 13.714 16.6142 13.6491C16.7708 13.5842 16.9046 13.4744 16.9988 13.3334C17.093 13.1924 17.1433 13.0267 17.1433 12.8572C17.1433 12.6299 17.053 12.4118 16.8922 12.2511C16.7315 12.0904 16.5135 12 16.2861 12Z" fill="#090909"/>
</g>
<defs>
<clipPath id="clip0_4278_7450">
<rect width="24" height="25.7143" fill="white"/>
</clipPath>
</defs>
</svg>
