<svg width="32" height="18" viewBox="0 0 32 18" fill="none" xmlns="http://www.w3.org/2000/svg">
<g clip-path="url(#clip0_4278_7440)">
<path d="M21.8666 10.1335L27.7333 4.26685M14.3999 5.86685L18.6666 10.1335M4.2666 12.8002L11.1999 5.86685" stroke="#090909" stroke-width="2.13333" stroke-linecap="round" stroke-linejoin="round"/>
<path d="M29.3334 4.26683C30.2171 4.26683 30.9334 3.55049 30.9334 2.66683C30.9334 1.78318 30.2171 1.06683 29.3334 1.06683C28.4497 1.06683 27.7334 1.78318 27.7334 2.66683C27.7334 3.55049 28.4497 4.26683 29.3334 4.26683Z" stroke="#090909" stroke-width="2.13333" stroke-linecap="round" stroke-linejoin="round"/>
<path d="M20.267 13.3334C21.1506 13.3334 21.867 12.617 21.867 11.7334C21.867 10.8497 21.1506 10.1334 20.267 10.1334C19.3833 10.1334 18.667 10.8497 18.667 11.7334C18.667 12.617 19.3833 13.3334 20.267 13.3334Z" stroke="#090909" stroke-width="2.13333" stroke-linecap="round" stroke-linejoin="round"/>
<path d="M12.8002 5.86675C13.6839 5.86675 14.4002 5.1504 14.4002 4.26675C14.4002 3.38309 13.6839 2.66675 12.8002 2.66675C11.9165 2.66675 11.2002 3.38309 11.2002 4.26675C11.2002 5.1504 11.9165 5.86675 12.8002 5.86675Z" stroke="#090909" stroke-width="2.13333" stroke-linecap="round" stroke-linejoin="round"/>
<path d="M2.66641 16C3.55006 16 4.26641 15.2836 4.26641 14.4C4.26641 13.5163 3.55006 12.8 2.66641 12.8C1.78275 12.8 1.06641 13.5163 1.06641 14.4C1.06641 15.2836 1.78275 16 2.66641 16Z" stroke="#090909" stroke-width="2.13333" stroke-linecap="round" stroke-linejoin="round"/>
</g>
<defs>
<clipPath id="clip0_4278_7440">
<rect width="32" height="17.0667" fill="white"/>
</clipPath>
</defs>
</svg>
