<svg width="18" height="26" viewBox="0 0 18 26" fill="none" xmlns="http://www.w3.org/2000/svg">
<g clip-path="url(#clip0_4278_7388)">
<path d="M15.3004 1.20001H2.70039C1.70628 1.20001 0.900391 2.0059 0.900391 3.00001V22.8C0.900391 23.7941 1.70628 24.6 2.70039 24.6H15.3004C16.2945 24.6 17.1004 23.7941 17.1004 22.8V3.00001C17.1004 2.0059 16.2945 1.20001 15.3004 1.20001Z" stroke="#090909" stroke-width="1.8" stroke-linecap="round" stroke-linejoin="round"/>
<path d="M3.60059 4.80002H14.4V8.40002H3.60059V4.80002Z" stroke="#090909" stroke-width="1.8" stroke-linecap="round" stroke-linejoin="round"/>
<path d="M4.0502 13.8C4.79578 13.8 5.4002 13.1956 5.4002 12.45C5.4002 11.7045 4.79578 11.1 4.0502 11.1C3.30461 11.1 2.7002 11.7045 2.7002 12.45C2.7002 13.1956 3.30461 13.8 4.0502 13.8Z" fill="#090909"/>
<path d="M9.00039 13.8C9.74598 13.8 10.3504 13.1956 10.3504 12.45C10.3504 11.7045 9.74598 11.1 9.00039 11.1C8.25481 11.1 7.65039 11.7045 7.65039 12.45C7.65039 13.1956 8.25481 13.8 9.00039 13.8Z" fill="#090909"/>
<path d="M13.9496 13.8C14.6952 13.8 15.2996 13.1956 15.2996 12.45C15.2996 11.7045 14.6952 11.1 13.9496 11.1C13.204 11.1 12.5996 11.7045 12.5996 12.45C12.5996 13.1956 13.204 13.8 13.9496 13.8Z" fill="#090909"/>
<path d="M4.0502 18.3C4.79578 18.3 5.4002 17.6956 5.4002 16.95C5.4002 16.2045 4.79578 15.6 4.0502 15.6C3.30461 15.6 2.7002 16.2045 2.7002 16.95C2.7002 17.6956 3.30461 18.3 4.0502 18.3Z" fill="#090909"/>
<path d="M9.00039 18.3C9.74598 18.3 10.3504 17.6956 10.3504 16.95C10.3504 16.2045 9.74598 15.6 9.00039 15.6C8.25481 15.6 7.65039 16.2045 7.65039 16.95C7.65039 17.6956 8.25481 18.3 9.00039 18.3Z" fill="#090909"/>
<path d="M4.0502 22.8C4.79578 22.8 5.4002 22.1956 5.4002 21.45C5.4002 20.7045 4.79578 20.1 4.0502 20.1C3.30461 20.1 2.7002 20.7045 2.7002 21.45C2.7002 22.1956 3.30461 22.8 4.0502 22.8Z" fill="#090909"/>
<path d="M9.00039 22.8C9.74598 22.8 10.3504 22.1956 10.3504 21.45C10.3504 20.7045 9.74598 20.1 9.00039 20.1C8.25481 20.1 7.65039 20.7045 7.65039 21.45C7.65039 22.1956 8.25481 22.8 9.00039 22.8Z" fill="#090909"/>
<path d="M15.2996 16.95C15.2996 16.2045 14.6952 15.6 13.9496 15.6C13.204 15.6 12.5996 16.2045 12.5996 16.95V21.45C12.5996 22.1956 13.204 22.8 13.9496 22.8C14.6952 22.8 15.2996 22.1956 15.2996 21.45V16.95Z" fill="#090909"/>
</g>
<defs>
<clipPath id="clip0_4278_7388">
<rect width="18" height="25.2" fill="white" transform="translate(0 0.299988)"/>
</clipPath>
</defs>
</svg>
