<svg width="24" height="20" viewBox="0 0 24 20" fill="none" xmlns="http://www.w3.org/2000/svg">
<g clip-path="url(#clip0_4278_7403)">
<path d="M1.60019 13.5998L22.4002 13.5998C22.842 13.5998 23.2002 13.2416 23.2002 12.7998V1.59979C23.2002 1.15796 22.842 0.799792 22.4002 0.799792L1.60019 0.799792C1.15837 0.799792 0.800196 1.15796 0.800196 1.59979V12.7998C0.800196 13.2416 1.15837 13.5998 1.60019 13.5998Z" stroke="#090909" stroke-width="1.6" stroke-linejoin="round"/>
<path d="M2.40039 15.9997H21.6004M4.00039 18.3997H20.0004" stroke="#090909" stroke-width="1.6" stroke-linecap="round" stroke-linejoin="round"/>
<path d="M12 11.1998C14.2091 11.1998 16 9.40894 16 7.1998C16 4.99066 14.2091 3.1998 12 3.1998C9.79086 3.1998 8 4.99066 8 7.1998C8 9.40894 9.79086 11.1998 12 11.1998Z" stroke="#090909" stroke-width="1.6" stroke-linecap="round" stroke-linejoin="round"/>
<path d="M23.1998 4.79974C22.1389 4.79974 21.1215 4.37832 20.3714 3.62817C19.6212 2.87803 19.1998 1.86061 19.1998 0.799744M0.799805 4.79974C1.32509 4.79974 1.84524 4.69628 2.33054 4.49526C2.81584 4.29424 3.2568 3.99961 3.62823 3.62817C3.99967 3.25674 4.2943 2.81578 4.49532 2.33048C4.69634 1.84518 4.7998 1.32503 4.7998 0.799744M23.1998 9.59974C22.1389 9.59974 21.1215 10.0212 20.3714 10.7713C19.6212 11.5215 19.1998 12.5389 19.1998 13.5997M0.799805 9.59974C1.32509 9.59974 1.84524 9.70321 2.33054 9.90423C2.81584 10.1052 3.2568 10.3999 3.62823 10.7713C3.99967 11.1428 4.2943 11.5837 4.49532 12.069C4.69634 12.5543 4.7998 13.0745 4.7998 13.5997" stroke="#090909" stroke-width="1.6" stroke-linecap="round" stroke-linejoin="round"/>
</g>
<defs>
<clipPath id="clip0_4278_7403">
<rect width="24" height="19.2" fill="white"/>
</clipPath>
</defs>
</svg>
