<svg width="19" height="25" viewBox="0 0 19 25" fill="none" xmlns="http://www.w3.org/2000/svg">
<g clip-path="url(#clip0_4278_7416)">
<path d="M6.0459 10.0398V9.71594C6.0459 8.91492 6.58567 8.25855 7.35431 8.06478L16.7782 5.54512C16.9379 5.50238 17.1053 5.49689 17.2675 5.52909C17.4296 5.56128 17.5822 5.63029 17.7135 5.73079C17.8448 5.83129 17.9512 5.96061 18.0246 6.10875C18.098 6.2569 18.1364 6.41993 18.1368 6.58526V7.77276" stroke="#090909" stroke-width="1.72727" stroke-linecap="round" stroke-linejoin="round"/>
<path d="M18.136 14.2468V18.565C18.136 19.3158 17.654 19.9463 16.9485 20.1843L15.761 20.6161C14.363 21.0868 12.9542 20.0537 12.9542 18.565C12.951 18.1826 13.0695 17.8091 13.2927 17.4985C13.5159 17.188 13.8322 16.9566 14.1957 16.8377L16.9485 15.858C17.654 15.6205 18.136 14.9976 18.136 14.2468ZM18.136 14.2468V1.40347C18.1356 1.32083 18.1163 1.23938 18.0794 1.1654C18.0426 1.09142 17.9893 1.02688 17.9236 0.976765C17.8579 0.926648 17.7815 0.892288 17.7004 0.876334C17.6194 0.86038 17.5357 0.863258 17.4559 0.884746L6.69283 3.77847C6.50511 3.83149 6.34002 3.94474 6.22298 4.1008C6.10594 4.25685 6.04344 4.44704 6.0451 4.6421V16.841M6.0451 16.841C6.0451 17.5918 5.56308 18.2228 4.8576 18.4603L2.05078 19.4319C1.30158 19.6845 0.863281 20.3614 0.863281 21.1591C0.863281 22.6478 2.29476 23.6718 3.6701 23.2103L4.8576 22.7785C5.56308 22.541 6.0451 21.9105 6.0451 21.1591V16.841Z" stroke="#090909" stroke-width="1.72727" stroke-linecap="round" stroke-linejoin="round"/>
</g>
<defs>
<clipPath id="clip0_4278_7416">
<rect width="19" height="24.2358" fill="white"/>
</clipPath>
</defs>
</svg>
