<svg width="24" height="18" viewBox="0 0 24 18" fill="none" xmlns="http://www.w3.org/2000/svg">
<g clip-path="url(#clip0_4278_7423)">
<path d="M19.3 4.40002C19.1535 6.43352 17.645 8.00002 16 8.00002C14.355 8.00002 12.844 6.43402 12.7 4.40002C12.55 2.28452 14.0185 0.800018 16 0.800018C17.9815 0.800018 19.45 2.32302 19.3 4.40002Z" stroke="#090909" stroke-width="1.6" stroke-linecap="round" stroke-linejoin="round"/>
<path d="M15.9996 11.2001C12.7411 11.2001 9.60761 12.8186 8.82261 15.9706C8.71861 16.3876 8.98011 16.8001 9.40861 16.8001H22.5911C23.0196 16.8001 23.2796 16.3876 23.1771 15.9706C22.3921 12.7681 19.2586 11.2001 15.9996 11.2001Z" stroke="#090909" stroke-width="1.6" stroke-miterlimit="10"/>
<path d="M9.19989 5.29699C9.08289 6.92099 7.86389 8.19999 6.54989 8.19999C5.23589 8.19999 4.01489 6.92149 3.89989 5.29699C3.78039 3.60749 4.96689 2.39999 6.54989 2.39999C8.13289 2.39999 9.31939 3.63849 9.19989 5.29699Z" stroke="#090909" stroke-width="1.6" stroke-linecap="round" stroke-linejoin="round"/>
<path d="M9.50029 11.3001C8.59779 10.8866 7.60379 10.7276 6.55029 10.7276C3.95029 10.7276 1.44529 12.0201 0.817794 14.5376C0.735294 14.8706 0.944294 15.2001 1.28629 15.2001H6.90029" stroke="#090909" stroke-width="1.6" stroke-miterlimit="10" stroke-linecap="round"/>
</g>
<defs>
<clipPath id="clip0_4278_7423">
<rect width="24" height="17.6" fill="white"/>
</clipPath>
</defs>
</svg>
