<svg width="221" height="199" viewBox="0 0 221 199" fill="none" xmlns="http://www.w3.org/2000/svg">
<circle cx="115" cy="107" r="92" fill="#E7F4F8"/>
<path fill-rule="evenodd" clip-rule="evenodd" d="M115.407 73.2112C117.645 95.0442 104.813 104.15 101.177 106.269C101.207 106.494 101.222 106.735 101.222 106.975V138.124L107.202 141.415H138.652C138.712 141.415 138.787 141.415 138.847 141.43C146.09 142.422 146.375 133.857 146.375 132.79C146.33 132.249 146.631 131.708 147.157 131.483C151.695 129.529 149.771 123.399 149.591 122.873C149.351 122.257 149.636 121.55 150.237 121.25C156.127 118.395 152.416 113.256 151.935 112.61C151.544 112.189 151.484 111.543 151.8 111.032C162.468 94.6685 129.14 98.7106 127.007 98.981C126.841 99.0111 126.661 99.0261 126.481 98.981C125.775 98.8458 125.324 98.1696 125.459 97.4634C130.433 72.2645 118.968 72.535 115.376 73.1811L115.407 73.2112Z" fill="#65AC00"/>
<path fill-rule="evenodd" clip-rule="evenodd" d="M99.0884 138.5V106.975C99.0884 106.224 98.7879 105.548 98.292 105.067C97.7962 104.571 97.12 104.27 96.3837 104.27H79.7047C78.9534 104.27 78.2772 104.571 77.7964 105.067C77.3005 105.563 77 106.239 77 106.975V138.5C77 139.251 77.3005 139.927 77.7964 140.408C78.2922 140.904 78.9684 141.205 79.7047 141.205H96.3837C97.135 141.205 97.8112 140.904 98.292 140.408C98.6978 140.003 98.9682 139.477 99.0584 138.891C99.0584 138.8 99.0584 138.695 99.0884 138.605C99.0884 138.575 99.0884 138.53 99.0884 138.5Z" fill="#65AC00"/>
<path opacity="0.1" d="M138.766 7.04824C137.906 6.81275 137.048 6.82225 136.068 6.83312C135.823 6.83584 135.578 6.83855 135.332 6.84127C136.546 5.72515 137.759 4.60903 138.602 3.25198C138.843 2.88175 138.348 2.51967 138.106 2.7674C136.648 3.88623 135.313 5.12622 133.979 6.3662C133.961 4.77365 133.944 3.18109 133.926 1.58854C133.918 0.853518 132.815 0.865744 132.823 1.60077C132.841 3.19332 132.86 4.90838 132.878 6.50093C131.762 5.41062 130.649 4.44281 129.535 3.475C129.041 3.11293 128.435 3.73224 128.929 4.09432C129.798 5.06484 130.666 6.03536 131.658 7.00453C130.432 7.01811 129.207 7.03169 127.983 7.16778C127.493 7.17322 127.501 7.90824 127.991 7.90281C129.463 8.00901 130.811 7.99407 132.159 7.97912C131.067 8.97138 129.976 10.0861 129.008 11.1995C128.523 11.695 129.265 12.2994 129.751 11.9264C130.843 10.9342 131.937 10.0644 132.906 9.07351C132.921 10.4211 132.937 11.8911 133.197 13.2359C133.2 13.4809 133.69 13.4755 133.81 13.2291C134.042 12.0014 134.027 10.6538 134.012 9.30629C134.382 9.54723 134.631 9.91202 135.001 10.153C135.744 10.7573 136.486 11.3617 137.226 11.8436C137.474 12.0858 137.838 11.7143 137.59 11.472C136.969 10.7437 136.471 10.0141 135.85 9.28592C135.477 8.79998 134.982 8.4379 134.611 8.07446C135.223 8.06767 135.714 8.06224 136.326 8.05544C137.307 8.04458 138.042 8.03643 139.02 7.78055C139.141 7.65669 139.135 7.16667 138.766 7.04824Z" fill="#FF00FF"/>
<path opacity="0.1" d="M12.0119 68.8695C11.1514 68.634 10.2936 68.6435 9.3133 68.6544C9.06822 68.6571 8.82314 68.6598 8.57806 68.6625C9.79125 67.5464 11.0044 66.4303 11.8473 65.0733C12.0883 64.703 11.5941 64.3409 11.3517 64.5887C9.76952 65.5864 8.4365 66.9488 7.10213 68.1888C7.08447 66.5963 7.06682 65.0037 7.04917 63.4112C7.04102 62.6762 5.93815 62.6884 5.94629 63.4234C5.96395 65.016 5.98296 66.731 6.00061 68.3236C4.88552 67.2332 3.77178 66.2654 2.65804 65.2976C2.1638 64.9356 1.55789 65.5549 2.05213 65.9169C2.92078 66.8875 3.78943 67.858 4.78063 68.8272C3.55521 68.8407 2.3298 68.8543 1.10574 68.9904C0.615576 68.9958 0.623724 69.7309 1.11389 69.7254C2.58575 69.8316 3.9337 69.8167 5.28166 69.8018C4.18965 70.794 3.099 71.9088 2.13089 73.0222C1.64615 73.5176 2.38819 74.122 2.87428 73.749C3.96629 72.7568 5.05966 71.887 6.02913 70.8961C6.04407 72.2437 6.06036 73.7137 6.32038 75.0586C6.3231 75.3036 6.81326 75.2981 6.93309 75.0518C7.16459 73.824 7.14966 72.4765 7.13472 71.1289C7.50506 71.3699 7.75422 71.7346 8.12456 71.9756C8.86659 72.58 9.60863 73.1843 10.3493 73.6662C10.5971 73.9085 10.9607 73.5369 10.7129 73.2946C10.092 72.5664 9.5937 71.8368 8.97284 71.1085C8.59978 70.6226 8.10554 70.2605 7.73385 69.8971C8.34655 69.8903 8.83672 69.8849 9.44943 69.8781C10.4298 69.8672 11.165 69.8591 12.1426 69.6032C12.2638 69.4793 12.2584 68.9893 12.0119 68.8695Z" fill="#FF00FF"/>
<path d="M32.6416 28.3323C31.2855 27.6122 30.0519 26.8908 29.058 25.6766C27.9402 24.3413 27.4324 22.7542 26.6795 21.1698C26.6795 21.1698 26.6781 21.0473 26.5556 21.0486L26.433 21.05C26.433 21.05 26.433 21.05 26.3118 21.1739C26.3118 21.1739 26.3118 21.1739 26.3132 21.2964C25.9822 24.608 24.0474 26.9573 21.6196 29.0671C21.4984 29.1909 21.5012 29.4359 21.6251 29.5571C24.3346 30.7522 26.2093 34.0395 27.097 36.7251C27.2223 36.9687 27.5899 36.9646 27.7097 36.7183C28.1822 35.1203 28.5336 33.6462 29.375 32.1666C30.2165 30.687 31.3072 29.5723 32.6456 28.6998C32.7668 28.576 32.7641 28.331 32.6416 28.3323Z" fill="#0097BA"/>
<path d="M219.895 65.0816C218.539 64.3615 217.305 63.6401 216.434 62.4245C215.316 61.0892 214.808 59.5021 214.055 57.9177C214.055 57.9177 214.054 57.7952 213.932 57.7966L213.809 57.7979C213.809 57.7979 213.809 57.7979 213.688 57.9218C213.688 57.9218 213.688 57.9218 213.689 58.0443C213.358 61.356 211.423 63.7053 208.996 65.815C208.874 65.9389 208.877 66.1839 209.001 66.305C211.711 67.5002 213.585 70.7874 214.473 73.473C214.598 73.7166 214.966 73.7126 215.086 73.4662C215.558 71.8682 215.91 70.3941 216.751 68.9145C217.593 67.435 218.683 66.3202 220.022 65.4477C220.022 65.4477 220.019 65.2027 219.895 65.0816Z" fill="#0097BA"/>
<path d="M130.095 34.9572C129.109 34.478 128.369 33.9962 127.624 33.1468C126.878 32.1749 126.498 31.0764 125.873 29.9807C125.873 29.9807 125.873 29.9807 125.751 29.9821L125.628 29.9834C125.628 29.9834 125.628 29.9834 125.629 30.1059C125.41 32.4362 124.08 34.0437 122.381 35.5328C122.259 35.6566 122.261 35.7791 122.383 35.7778C124.353 36.6136 125.605 38.9276 126.238 40.7583C126.24 41.0033 126.608 40.9993 126.605 40.7543C126.838 39.649 127.194 38.5424 127.795 37.5556C128.397 36.5687 129.124 35.8256 130.098 35.2022C130.22 35.2008 130.218 34.9558 130.095 34.9572Z" fill="#0097BA"/>
<path d="M98.839 56.805C97.1139 55.9665 95.7565 55.1239 94.6373 53.6661C93.2703 51.966 92.6373 50.1352 91.7578 48.1847C91.7578 48.1847 91.7564 48.0622 91.6338 48.0635L91.5113 48.0649C91.5113 48.0649 91.3888 48.0662 91.3901 48.1887L91.3915 48.3112C90.9448 52.2368 88.6491 55.2027 85.7352 57.6854C85.6141 57.8093 85.6181 58.1768 85.8632 58.1741C89.1881 59.6074 91.4373 63.5031 92.4543 66.7998C92.5809 67.166 93.0711 67.1606 93.1896 66.7917C93.6594 64.9487 94.2517 63.1043 95.213 61.3784C96.1743 59.6525 97.5074 58.29 99.2121 57.291C98.967 57.2937 99.0855 56.9248 98.839 56.805Z" fill="#0097BA"/>
<path d="M68.5789 75.1036C67.5728 72.7869 65.2309 71.5877 62.8918 70.6335C60.5526 69.6793 57.8472 68.8516 55.4004 69.2463C53.0749 69.5171 50.5178 71.0157 49.6845 73.2303C49.0894 74.8296 48.5025 77.164 49.9866 78.3727C50.73 79.0996 52.0793 79.2071 52.8064 78.464C54.0196 77.3479 52.8977 75.645 51.9079 74.7984C47.8232 71.1681 40.9677 71.8567 36.4568 73.9895C33.6519 75.2458 31.2241 77.3555 29.7849 80.1894C28.5839 82.408 27.2794 86.3431 28.8983 88.653C29.1474 89.0178 29.6376 89.0124 29.8786 88.6422C31.2062 86.7897 31.1763 84.0946 32.1349 82.1236C33.0921 80.0302 34.6662 78.2975 36.4921 77.1746C40.2637 74.6824 46.7448 73.3854 50.696 76.037C51.1903 76.3991 52.5477 77.2416 51.8206 77.9848C51.2147 78.6041 50.2276 78.0025 49.8545 77.5165C48.3542 74.8378 51.8753 71.8583 54.0742 71.2213C56.2732 70.5843 58.8533 71.1683 60.946 72.0027C63.2825 72.712 65.9933 74.0296 67.363 75.9747C67.9784 76.213 68.8308 75.7134 68.5789 75.1036Z" fill="#AF0C86"/>
<path d="M176.161 55.6424C176.283 55.641 176.282 55.5185 176.159 55.5199C176.037 55.5212 176.038 55.6437 176.161 55.6424Z" fill="#3F3937"/>
<path d="M177.24 53.5476C179.28 49.6044 183.523 45.3917 188.318 46.8088C190.039 47.2798 192.263 48.8479 192.042 51.0557C191.936 52.5271 190.209 51.5661 189.59 50.9604C188.102 49.3841 188.806 46.5584 189.275 44.7154C189.983 42.2571 191.551 39.9119 193.618 38.4188C195.318 37.0522 197.64 36.4139 199.72 36.1458C202.046 35.875 204.137 36.5869 206.348 37.0525C207.207 37.1655 207.809 36.1786 207.19 35.5729C205.578 33.8755 202.757 33.6617 200.554 33.9312C198.228 34.202 195.784 34.8417 193.838 36.211C189.945 38.827 187.066 44.3723 187.485 49.0234C187.753 51.1032 190.492 54.9935 192.796 52.7626C193.888 51.7703 193.5 49.9369 192.996 48.7173C192.118 46.8892 190.144 45.6859 188.3 45.2163C182.77 43.8073 178.532 48.51 176.501 53.1883C176.382 53.5571 176.999 53.9179 177.24 53.5476Z" fill="#AF0C86"/>
<path d="M146.87 22.5193C146.744 22.1531 146.739 21.7856 146.611 21.297C146.609 21.052 146.485 20.9308 146.483 20.8083C146.482 20.6858 146.481 20.5633 146.357 20.4422C146.356 20.3197 146.233 20.321 146.232 20.1985C146.108 20.0774 145.984 19.9562 145.861 19.9576C145.739 19.9589 145.618 20.0828 145.496 20.2067C145.498 20.3292 145.375 20.3305 145.377 20.453C145.378 20.5755 145.379 20.698 145.381 20.8205C145.383 21.0655 145.386 21.3106 145.511 21.5542C145.515 21.9217 145.642 22.2879 145.769 22.654L145.767 22.5315L145.769 22.654C145.77 22.7765 145.895 23.0202 146.019 23.1413C146.143 23.2625 146.389 23.3823 146.511 23.2584C146.633 23.257 146.877 23.1318 146.876 23.0093C146.876 23.0093 146.873 22.7643 146.87 22.5193Z" fill="#F3A600"/>
<path opacity="0.5" d="M106.944 36.0715C107.424 35.086 107.533 33.8596 107.398 32.7584C107.384 31.5334 107.248 30.3097 106.991 29.2099C106.988 28.9649 106.498 28.9703 106.501 29.2153C106.39 30.3192 106.403 31.4217 106.416 32.6468C106.427 33.6268 106.439 34.7294 106.081 35.591C105.843 36.2062 106.706 36.6867 106.944 36.0715Z" fill="#AF0C86"/>
<g opacity="0.5">
<path d="M107.012 20.1433C107 19.0408 107.11 17.9369 106.977 16.9582C106.842 15.857 106.464 14.8811 105.84 13.9078C105.715 13.6642 105.226 13.7921 105.353 14.1583C105.865 16.1129 105.888 18.1955 105.911 20.278C105.795 20.8919 107.02 20.8783 107.012 20.1433Z" fill="#AF0C86"/>
</g>
<path opacity="0.5" d="M101.504 9.66765C101.248 8.69034 100.87 7.71438 100.37 6.86229C100.121 6.49749 99.9929 6.00883 99.7437 5.64404C99.4945 5.27924 99.2413 4.54694 98.7511 4.55237C98.5061 4.55509 98.261 4.5578 98.1412 4.80417C97.9015 5.2969 98.2746 5.78284 98.5251 6.27014C98.7742 6.63494 99.0247 7.12224 99.1514 7.48839C99.651 8.34048 100.028 9.19394 100.283 10.0487C100.536 10.7811 101.757 10.4 101.504 9.66765Z" fill="#AF0C86"/>
<path opacity="0.5" d="M107.121 7.8901C107.356 6.90735 107.466 5.80346 107.576 4.69956C107.571 4.20955 107.564 3.59703 107.559 3.10701C107.553 2.617 107.546 2.00448 107.296 1.51718C107.169 1.15102 106.679 1.15646 106.561 1.52533C106.321 2.01806 106.328 2.63058 106.333 3.1206C106.339 3.61061 106.344 4.10063 106.349 4.59064C106.36 5.57067 106.249 6.55206 106.137 7.53345C106.14 7.77846 106.266 8.14462 106.511 8.1419C106.759 8.38419 107.125 8.25761 107.121 7.8901Z" fill="#AF0C86"/>
<path opacity="0.5" d="M111.818 11.3911C112.049 10.1633 112.527 9.05538 113.129 8.06856C113.731 7.08173 114.579 6.2147 115.304 5.22651C115.423 4.98015 115.297 4.61399 115.053 4.73921C113.709 5.12167 112.741 6.23507 112.141 7.3444C111.418 8.45508 111.065 9.8067 110.833 11.0345C110.597 11.7722 111.703 12.1275 111.818 11.3911Z" fill="#AF0C86"/>
<path d="M69.4523 25.9504C67.7096 23.5194 65.9682 21.2108 63.7407 19.2752C62.5044 18.3087 61.2681 17.3423 59.912 16.6222C59.1727 16.2628 58.4348 16.026 57.6954 15.6666C57.3264 15.5482 56.9575 15.4298 56.5871 15.1888C56.2181 15.0704 55.9703 14.8281 55.6041 14.9547C55.359 14.9574 55.2378 15.0813 55.3631 15.3249C55.4924 15.9361 56.2317 16.2954 56.726 16.6575C57.3441 17.1408 57.9609 17.5015 58.579 17.9847C59.8139 18.8286 61.0502 19.7951 62.164 20.7629C64.2689 22.6999 66.0076 24.7634 67.6264 27.0733C68.3739 28.1677 70.2011 27.1673 69.4523 25.9504Z" fill="#F3A600"/>
<path d="M71.2259 48.4875C69.4831 46.0564 67.257 44.2433 64.67 43.0468C63.3153 42.4492 61.9619 41.9741 60.6112 41.7441C59.3831 41.5126 57.5436 41.4105 56.4475 42.0353C56.2038 42.1605 56.2079 42.528 56.4557 42.7703C57.4428 43.3719 58.9147 43.4781 60.0203 43.7109C61.3723 44.0635 62.4792 44.4188 63.7114 45.0177C66.0519 46.0944 68.2753 47.6625 69.8901 49.605C70.511 50.3332 71.8481 49.3382 71.2259 48.4875Z" fill="#F3A600"/>
<path d="M43.2547 57.0064C44.3549 56.7492 45.5789 56.6131 46.6818 56.6008C47.2945 56.5941 47.9072 56.5873 48.5199 56.5805C48.8875 56.5764 49.2552 56.5723 49.4989 56.4471C49.7426 56.3219 49.9877 56.3192 50.2314 56.1939C50.4751 56.0687 50.4711 55.7012 50.2246 55.5814C49.9782 55.4616 49.7317 55.3418 49.6078 55.2207C49.3614 55.1009 48.8712 55.1063 48.6248 54.9865C48.0121 54.9933 47.3994 55.0001 46.6655 55.1308C45.4414 55.2669 44.2187 55.5255 42.9974 55.9066C42.2635 56.0372 42.5208 57.137 43.2547 57.0064Z" fill="#F3A600"/>
<path d="M173.802 86.1756C177.21 84.055 180.867 82.2992 184.776 81.1532C186.609 80.6428 188.564 80.1311 190.522 79.8644C191.624 79.7296 192.603 79.5963 193.704 79.4615C194.562 79.452 195.42 79.4425 196.151 79.0668C196.395 78.9416 196.391 78.5741 196.144 78.4543C195.282 78.0963 194.426 78.2283 193.446 78.2392C192.343 78.2514 191.364 78.3848 190.261 78.397C188.179 78.5426 186.1 78.9332 184.022 79.4463C179.867 80.4726 176.211 82.3509 172.809 85.084C172.325 85.5794 173.071 86.5513 173.802 86.1756Z" fill="#F3A600"/>
<path d="M166.999 80.4927C169.906 77.3975 173.682 75.2728 177.335 73.1495C179.162 72.1491 181.111 71.0248 183.062 70.1456C184.159 69.6433 185.134 69.1424 186.109 68.6415C187.084 68.1407 188.184 67.8834 189.158 67.26C189.402 67.1348 189.397 66.7673 189.028 66.6489C188.045 66.4147 186.947 66.7945 185.968 66.9278C184.744 67.0639 183.645 67.4437 182.547 67.9459C180.352 68.9504 178.159 70.0774 176.089 71.3255C172.07 73.5754 168.542 75.9424 165.764 79.6488C165.281 80.2667 166.392 80.9895 166.999 80.4927Z" fill="#F3A600"/>
<path d="M151.967 40.1056C152.054 36.9192 153.003 34.0907 154.074 31.1384C154.67 29.6616 155.268 28.3072 155.988 26.9515C156.708 25.5958 157.431 24.4851 157.783 23.011C157.78 22.766 157.531 22.4012 157.289 22.6489C156.681 23.1457 156.318 23.5173 155.834 24.1353C155.474 24.7519 155.114 25.491 154.753 26.1076C154.034 27.5858 153.315 29.064 152.72 30.6633C151.65 33.6156 151.074 36.93 150.987 40.1165C151.116 40.7277 151.974 40.7182 151.967 40.1056Z" fill="#F3A600"/>
<path d="M162.277 19.4081C162.397 19.1618 162.518 19.0379 162.638 18.7915C162.638 18.7915 162.639 18.9141 162.517 18.9154C162.517 18.9154 162.516 18.7929 162.638 18.7915L162.759 18.6677C162.88 18.5438 162.88 18.5438 163.002 18.42C163.243 18.0497 163.608 17.8006 163.849 17.4304C164.09 17.0602 164.455 16.8111 164.696 16.4409C164.815 16.1945 165.059 16.0693 165.179 15.8229C165.178 15.7004 165.3 15.6991 165.299 15.5766C165.42 15.4527 165.419 15.3302 165.417 15.2077C165.537 14.9613 165.288 14.5965 164.92 14.6006C164.798 14.602 164.675 14.6033 164.43 14.606C164.308 14.6074 164.309 14.7299 164.186 14.7313C164.186 14.7313 164.186 14.7313 164.064 14.7326C164.186 14.7313 164.186 14.7313 164.064 14.7326C163.819 14.7353 163.576 14.9831 163.333 15.1083C162.845 15.3587 162.482 15.7303 162.118 16.1019C161.755 16.4735 161.391 16.8451 161.151 17.3378C160.91 17.708 160.548 18.2021 160.43 18.571C160.189 18.9412 160.318 19.5524 160.811 19.792C161.547 19.9063 162.036 19.7784 162.277 19.4081Z" fill="#F3A600"/>
<path d="M158.242 42.3639C158.599 41.3798 159.079 40.5168 159.436 39.5327C159.793 38.5486 160.151 37.687 160.63 36.7015C161.111 35.8386 161.468 34.8545 161.948 33.9915C162.429 33.1285 163.155 32.2629 163.266 31.2815C163.262 30.9139 162.893 30.7955 162.648 30.7982C161.671 31.0541 161.193 32.1621 160.588 32.9039C159.862 33.7696 159.383 34.755 158.904 35.7405C158.425 36.726 158.068 37.7101 157.712 38.8167C157.595 39.3081 157.356 39.8008 157.362 40.4133C157.245 40.9047 157.252 41.5172 157.258 42.0072C157.142 42.6211 158.002 42.8566 158.242 42.3639Z" fill="#F3A600"/>
<path d="M164.957 28.9349C165.195 28.3196 165.557 27.8255 165.919 27.3315C166.401 26.591 166.637 25.7308 167.12 25.1128C167.604 24.4948 168.214 24.243 168.821 23.7462C169.428 23.2494 170.036 22.7526 170.642 22.1333C172.945 19.9024 175.62 17.9125 178.42 16.2887C179.152 15.913 179.883 15.5374 180.614 15.1617C181.101 14.9113 181.831 14.4131 181.457 13.8046C180.83 12.5864 178.397 14.2061 177.666 14.5818C174.865 16.2056 172.563 18.559 170.013 20.6701C169.283 21.1682 168.677 21.7875 168.071 22.4068C167.465 23.0262 166.984 23.8891 166.378 24.5084C165.773 25.1277 165.041 25.5034 164.435 26.1227C163.951 26.6182 163.591 27.3573 163.354 28.095C162.875 29.0805 164.356 30.0442 164.957 28.9349Z" fill="#F3A600"/>
<path d="M192.871 59.5002C192.992 59.3763 192.991 59.2538 193.112 59.13C193.232 58.8836 193.352 58.6373 193.349 58.3922C193.346 58.1472 193.345 58.0247 193.465 57.7784L193.463 57.6559C193.462 57.5334 193.46 57.4109 193.459 57.2883C193.456 57.0433 193.454 56.7983 193.328 56.5547C193.326 56.3097 193.202 56.1885 193.078 56.0674C192.827 55.5801 192.333 55.218 191.719 55.1023C191.966 55.2221 192.212 55.3419 192.46 55.5842C192.212 55.3419 191.966 55.2221 191.72 55.2248C191.474 55.105 191.229 55.1077 191.108 55.2316C190.863 55.2343 190.741 55.3582 190.498 55.4834C190.254 55.6086 190.012 55.8563 189.892 56.1027C190.257 55.8536 190.499 55.6059 190.864 55.3568C190.741 55.3582 190.62 55.482 190.498 55.4834C190.254 55.6086 190.01 55.7338 189.889 55.8577C189.768 55.9816 189.647 56.1054 189.526 56.2293C189.527 56.3518 189.404 56.3531 189.406 56.4756C189.407 56.5981 189.286 56.722 189.287 56.8445C189.408 56.7207 189.406 56.4756 189.527 56.3518C189.528 56.4743 189.406 56.4756 189.407 56.5982C189.408 56.7207 189.286 56.722 189.287 56.8445C189.166 56.9684 189.169 57.2134 189.048 57.3372C188.928 57.5836 188.808 57.83 188.812 58.1975C188.692 58.4439 188.819 58.81 188.822 59.055C188.947 59.2987 189.072 59.5423 189.197 59.786C189.323 60.0296 189.57 60.2719 189.817 60.3917C189.941 60.5128 190.186 60.5101 190.31 60.6313C190.679 60.7497 191.169 60.7443 191.535 60.6177C191.656 60.4938 191.901 60.4911 192.023 60.3672C192.51 60.1168 192.751 59.7466 192.871 59.5002Z" fill="#F3A600"/>
<path d="M187.988 17.0403C187.986 16.9178 187.864 16.9191 187.862 16.7966C187.739 16.6755 187.615 16.5543 187.613 16.4318C187.613 16.4318 187.489 16.3107 187.367 16.312C187.12 16.1923 187.119 16.0698 186.75 15.9513C186.628 15.9527 186.381 15.8329 186.259 15.8343C186.136 15.8356 185.891 15.8383 185.891 15.8383L185.525 15.9649C185.281 16.0901 185.16 16.214 185.04 16.4604C184.919 16.5842 184.919 16.5842 184.92 16.7067C184.921 16.8292 184.799 16.8306 184.8 16.9531C184.68 17.1995 184.562 17.5683 184.566 17.9358C184.57 18.3034 184.695 18.547 184.822 18.9132C185.196 19.5216 185.813 19.8823 186.426 19.8755C187.039 19.8687 187.77 19.4931 188.008 18.8778C188.128 18.6315 188.246 18.2626 188.242 17.8951C188.24 17.6501 188.114 17.4064 187.988 17.0403Z" fill="#F3A600"/>
<path d="M97.838 32.7419C96.821 29.4452 97.2718 25.8871 97.8479 22.5727C97.8452 22.3277 97.5987 22.2079 97.4789 22.4543C96.2901 25.7755 95.9646 29.5772 96.983 32.9964C96.9898 33.6089 97.9674 33.3531 97.838 32.7419Z" fill="#F3A600"/>
</svg>
